<svg width="73" height="64" viewBox="0 0 73 64" fill="none" xmlns="http://www.w3.org/2000/svg">
<path d="M36.5 58.6668C53.2987 58.6668 66.9167 46.7278 66.9167 32.0002C66.9167 17.2726 53.2987 5.3335 36.5 5.3335C19.7013 5.3335 6.08333 17.2726 6.08333 32.0002C6.08333 46.7278 19.7013 58.6668 36.5 58.6668Z" stroke="#E976B7" stroke-width="2" stroke-linecap="round" stroke-linejoin="round"/>
<path d="M42 22H39C37.6739 22 36.4021 22.5268 35.4645 23.4645C34.5268 24.4021 34 25.6739 34 27V30H31V34H34V42H38V34H41L42 30H38V27C38 26.7348 38.1054 26.4804 38.2929 26.2929C38.4804 26.1054 38.7348 26 39 26H42V22Z" stroke="#E976B7" stroke-width="2" stroke-linecap="round" stroke-linejoin="round"/>
</svg>
